<svg width="60" height="60" viewBox="0 0 60 60" fill="none" xmlns="http://www.w3.org/2000/svg">
<path d="M41.6355 19.7358L19.6275 33.3854C19.2401 33.6257 19.0638 34.0975 19.199 34.533L22.1511 44.0456C22.2131 44.2455 22.5043 44.218 22.5278 44.01L23.2453 37.6315C23.273 37.385 23.3912 37.1576 23.577 36.9933L42.2137 20.5129C42.6599 20.1185 42.1417 19.4218 41.6355 19.7358Z" fill="white"/>
<path d="M30 0C13.4315 0 0 13.4315 0 30C0 46.5685 13.4315 60 30 60C46.5685 60 60 46.5685 60 30C60 13.4315 46.5685 0 30 0ZM50.014 15.5905L43.1638 48.3414C42.8423 49.8782 41.0397 50.5685 39.774 49.6394L35.5043 46.5053C32.0197 43.9475 27.1844 44.3415 24.1598 47.4297C23.2346 48.3743 21.6364 47.992 21.239 46.7309L20.6293 44.7964C18.6318 38.458 13.612 33.5285 7.23835 31.6464C5.90072 31.2515 5.82186 29.3865 7.12144 28.8801L47.2442 13.2447C48.7714 12.6496 50.3496 13.9861 50.014 15.5905Z" fill="white"/>
</svg>
