<svg width="60" height="60" viewBox="0 0 60 60" fill="none" xmlns="http://www.w3.org/2000/svg">
<g clip-path="url(#clip0)">
<path d="M56.6996 3.30048C54.5 1.1003 51.8498 0 48.7512 0H11.2509C8.1522 0 5.50202 1.1003 3.30142 3.30048C1.10124 5.50108 0.000938416 8.15112 0.000938416 11.2499V48.7498C0.000938416 51.8483 1.10124 54.4986 3.30142 56.6992C5.50202 58.8998 8.1522 60.0001 11.2509 60.0001H48.7507C51.8494 60.0001 54.4996 58.8998 56.6992 56.6992C58.8998 54.4986 60.0001 51.8485 60.0001 48.7498V11.2499C60 8.15112 58.8997 5.50067 56.6996 3.30048ZM45.8993 23.0861C45.9254 23.3205 45.9387 23.6714 45.9387 24.141C45.9387 26.3286 45.6194 28.5226 44.9817 30.7225C44.3439 32.9235 43.3672 35.0329 42.0515 37.051C40.7373 39.0689 39.1682 40.8533 37.3455 42.4026C35.5224 43.9514 33.3352 45.1889 30.7826 46.1127C28.2312 47.0379 25.4963 47.5005 22.5799 47.5005C18.049 47.5005 13.8563 46.2757 10.002 43.8288C10.627 43.9065 11.2784 43.9458 11.9551 43.9458C15.7313 43.9458 19.1297 42.774 22.1507 40.4296C20.3801 40.4043 18.7978 39.8578 17.4047 38.789C16.0112 37.7214 15.0414 36.3674 14.4944 34.7267C15.1713 34.8307 15.679 34.8822 16.0175 34.8822C16.5904 34.8822 17.2546 34.7783 18.0096 34.5704C16.1086 34.2053 14.5073 33.2622 13.2052 31.7387C11.9028 30.2151 11.2518 28.4769 11.2518 26.524V26.4459C12.6316 27.0964 13.9338 27.4349 15.1579 27.4613C12.788 25.8724 11.6032 23.5941 11.6032 20.6254C11.6032 19.167 11.9805 17.7869 12.7358 16.4848C14.7928 19.011 17.2933 21.0289 20.2356 22.5393C23.1782 24.0495 26.3295 24.8962 29.6887 25.0784C29.5587 24.5836 29.4935 23.9583 29.4935 23.2034C29.4935 20.9374 30.2943 19.0041 31.896 17.4024C33.4972 15.8008 35.431 14.9997 37.6963 14.9997C40.0927 14.9997 42.0853 15.8594 43.6737 17.5782C45.4706 17.2397 47.2162 16.5753 48.9084 15.5861C48.2575 17.5908 47.0458 19.1144 45.2758 20.1562C46.968 19.9214 48.543 19.4789 50.0011 18.8279C48.9075 20.4945 47.5399 21.9137 45.8993 23.0861Z" fill="white"/>
</g>
<defs>
<clipPath id="clip0">
<rect width="60" height="60" rx="30" fill="white"/>
</clipPath>
</defs>
</svg>
